<svg width="28" height="28" viewBox="0 0 28 28" fill="none" xmlns="http://www.w3.org/2000/svg">
<g filter="url(#filter0_d_1_14)">
<path d="M14 20C8.477 20 4 15.523 4 10C4 4.477 8.477 0 14 0C19.523 0 24 4.477 24 10C24 15.523 19.523 20 14 20ZM14 18C16.1217 18 18.1566 17.1571 19.6569 15.6569C21.1571 14.1566 22 12.1217 22 10C22 7.87827 21.1571 5.84344 19.6569 4.34315C18.1566 2.84285 16.1217 2 14 2C11.8783 2 9.84344 2.84285 8.34315 4.34315C6.84285 5.84344 6 7.87827 6 10C6 12.1217 6.84285 14.1566 8.34315 15.6569C9.84344 17.1571 11.8783 18 14 18ZM15 10H19V12H13V5H15V10Z" fill="#E74C3C"/>
</g>
<defs>
<filter id="filter0_d_1_14" x="0" y="0" width="28" height="28" filterUnits="userSpaceOnUse" color-interpolation-filters="sRGB">
<feFlood flood-opacity="0" result="BackgroundImageFix"/>
<feColorMatrix in="SourceAlpha" type="matrix" values="0 0 0 0 0 0 0 0 0 0 0 0 0 0 0 0 0 0 127 0" result="hardAlpha"/>
<feOffset dy="4"/>
<feGaussianBlur stdDeviation="2"/>
<feComposite in2="hardAlpha" operator="out"/>
<feColorMatrix type="matrix" values="0 0 0 0 0 0 0 0 0 0 0 0 0 0 0 0 0 0 0.25 0"/>
<feBlend mode="normal" in2="BackgroundImageFix" result="effect1_dropShadow_1_14"/>
<feBlend mode="normal" in="SourceGraphic" in2="effect1_dropShadow_1_14" result="shape"/>
</filter>
</defs>
</svg>
